<svg width="178" height="186" viewBox="0 0 178 186" fill="none" xmlns="http://www.w3.org/2000/svg">
<path d="M0.204 186V153.488H38.86C30.8387 148.539 24.012 142.565 18.38 135.568C12.9187 128.4 8.73733 120.379 5.836 111.504C3.10533 102.459 1.74 92.6453 1.74 82.064C1.74 66.5333 5.23867 52.624 12.236 40.336C19.404 28.048 29.4733 18.32 42.444 11.152C55.5853 3.98399 71.0307 0.399994 88.78 0.399994C106.7 0.399994 122.145 3.98399 135.116 11.152C148.087 18.32 158.071 28.1333 165.068 40.592C172.236 52.88 175.82 66.7893 175.82 82.32C175.82 92.9013 174.369 102.629 171.468 111.504C168.737 120.379 164.556 128.4 158.924 135.568C153.292 142.565 146.38 148.539 138.188 153.488H177.356V186H102.092V151.184C111.479 146.747 118.561 141.115 123.34 134.288C128.289 127.291 131.617 119.781 133.324 111.76C135.031 103.568 135.884 95.4613 135.884 87.44C135.884 76.0053 133.921 66.2773 129.996 58.256C126.241 50.064 120.865 43.7493 113.868 39.312C106.871 34.8747 98.508 32.656 88.78 32.656C79.052 32.656 70.604 34.8747 63.436 39.312C56.4387 43.7493 51.0627 50.064 47.308 58.256C43.5533 66.448 41.676 76.2613 41.676 87.696C41.676 95.7173 42.7 103.739 44.748 111.76C46.796 119.781 50.2093 127.205 54.988 134.032C59.9373 140.859 66.5933 146.576 74.956 151.184V186H0.204Z" fill="url(#paint0_linear_7577_1993)"/>
<defs>
<linearGradient id="paint0_linear_7577_1993" x1="89" y1="-96" x2="89" y2="288" gradientUnits="userSpaceOnUse">
<stop stop-color="#34A853"/>
<stop offset="1" stop-color="#203428"/>
</linearGradient>
</defs>
</svg>
